<mxfile host="app.diagrams.net" agent="Mozilla/5.0 (X11; Linux x86_64) AppleWebKit/537.36 (KHTML, like Gecko) Chrome/132.0.0.0 Safari/537.36" version="26.0.16">
  <diagram name="ページ1" id="boBP_XGhJ_DgbDZFJ40Q">
    <mxGraphModel dx="2749" dy="1157" grid="0" gridSize="10" guides="1" tooltips="1" connect="1" arrows="1" fold="1" page="0" pageScale="1" pageWidth="827" pageHeight="1169" math="0" shadow="0">
      <root>
        <mxCell id="0" />
        <mxCell id="1" parent="0" />
        <mxCell id="AHDUkJMj8YiW-9V-rh8S-35" value="マルクス" style="ellipse;whiteSpace=wrap;html=1;" parent="1" vertex="1">
          <mxGeometry x="659" y="-298" width="120" height="80" as="geometry" />
        </mxCell>
        <mxCell id="VeQA7fgHVSpjSWg_4I_0-11" value="ゲーム理論" style="shape=hexagon;perimeter=hexagonPerimeter2;whiteSpace=wrap;html=1;fixedSize=1;" parent="1" vertex="1">
          <mxGeometry x="-624" y="279" width="120" height="80" as="geometry" />
        </mxCell>
        <mxCell id="AHDUkJMj8YiW-9V-rh8S-5" value="ケインズ" style="ellipse;whiteSpace=wrap;html=1;" parent="1" vertex="1">
          <mxGeometry x="167" y="-323" width="120" height="80" as="geometry" />
        </mxCell>
        <mxCell id="AHDUkJMj8YiW-9V-rh8S-7" value="マルクス経済学" style="rounded=0;whiteSpace=wrap;html=1;" parent="1" vertex="1">
          <mxGeometry x="662" y="-174" width="120" height="60" as="geometry" />
        </mxCell>
        <mxCell id="AHDUkJMj8YiW-9V-rh8S-9" value="歴史学派" style="rounded=0;whiteSpace=wrap;html=1;" parent="1" vertex="1">
          <mxGeometry x="138" y="299" width="120" height="60" as="geometry" />
        </mxCell>
        <mxCell id="AHDUkJMj8YiW-9V-rh8S-3" value="旧制度派" style="rounded=0;whiteSpace=wrap;html=1;" parent="1" vertex="1">
          <mxGeometry x="47" y="216" width="120" height="60" as="geometry" />
        </mxCell>
        <mxCell id="2Oc6-Kovre68F-RvVyWn-4" value="ケインズ・サーカス" style="rounded=0;whiteSpace=wrap;html=1;" vertex="1" parent="1">
          <mxGeometry x="96" y="-123" width="120" height="60" as="geometry" />
        </mxCell>
        <mxCell id="AHDUkJMj8YiW-9V-rh8S-38" value="シュンペーター" style="ellipse;whiteSpace=wrap;html=1;" parent="1" vertex="1">
          <mxGeometry x="-97" y="-286" width="120" height="80" as="geometry" />
        </mxCell>
        <mxCell id="AHDUkJMj8YiW-9V-rh8S-8" value="進化経済学派" style="rounded=0;whiteSpace=wrap;html=1;" parent="1" vertex="1">
          <mxGeometry x="103" y="101" width="120" height="63" as="geometry" />
        </mxCell>
        <mxCell id="AHDUkJMj8YiW-9V-rh8S-2" value="新制度派" style="rounded=0;whiteSpace=wrap;html=1;" parent="1" vertex="1">
          <mxGeometry x="15" y="-5" width="120" height="60" as="geometry" />
        </mxCell>
        <mxCell id="AHDUkJMj8YiW-9V-rh8S-30" value="ポスト・ケインズ派" style="swimlane;whiteSpace=wrap;html=1;" parent="1" vertex="1">
          <mxGeometry x="302" y="-19" width="316" height="231" as="geometry" />
        </mxCell>
        <mxCell id="AHDUkJMj8YiW-9V-rh8S-4" value="ケインズ原理主義" style="rounded=0;whiteSpace=wrap;html=1;" parent="AHDUkJMj8YiW-9V-rh8S-30" vertex="1">
          <mxGeometry x="20" y="44" width="120" height="60" as="geometry" />
        </mxCell>
        <mxCell id="AHDUkJMj8YiW-9V-rh8S-34" value="カレツキ派" style="rounded=0;whiteSpace=wrap;html=1;" parent="AHDUkJMj8YiW-9V-rh8S-30" vertex="1">
          <mxGeometry x="177" y="44" width="120" height="60" as="geometry" />
        </mxCell>
        <mxCell id="VeQA7fgHVSpjSWg_4I_0-2" value="行動経済学" style="rounded=0;whiteSpace=wrap;html=1;" parent="1" vertex="1">
          <mxGeometry x="-174" y="390" width="120" height="60" as="geometry" />
        </mxCell>
        <mxCell id="2Oc6-Kovre68F-RvVyWn-5" value="アメリカン・ケインジアン" style="rounded=0;whiteSpace=wrap;html=1;" vertex="1" parent="1">
          <mxGeometry x="-110" y="-137" width="120" height="60" as="geometry" />
        </mxCell>
        <mxCell id="AHDUkJMj8YiW-9V-rh8S-1" value="新古典派" style="rounded=0;whiteSpace=wrap;html=1;" parent="1" vertex="1">
          <mxGeometry x="-328" y="-323" width="120" height="60" as="geometry" />
        </mxCell>
        <mxCell id="AHDUkJMj8YiW-9V-rh8S-11" value="新古典派総合" style="rounded=0;whiteSpace=wrap;html=1;" parent="1" vertex="1">
          <mxGeometry x="-208" y="-36" width="128" height="60" as="geometry" />
        </mxCell>
        <mxCell id="AHDUkJMj8YiW-9V-rh8S-10" value="マネタリスト" style="rounded=0;whiteSpace=wrap;html=1;" parent="1" vertex="1">
          <mxGeometry x="-490" y="-183" width="120" height="60" as="geometry" />
        </mxCell>
        <mxCell id="AHDUkJMj8YiW-9V-rh8S-6" value="新しい古典派" style="rounded=0;whiteSpace=wrap;html=1;" parent="1" vertex="1">
          <mxGeometry x="-504" y="-33" width="120" height="60" as="geometry" />
        </mxCell>
        <mxCell id="AHDUkJMj8YiW-9V-rh8S-15" value="ニュー・ケインズ派" style="swimlane;whiteSpace=wrap;html=1;" parent="1" vertex="1">
          <mxGeometry x="-437" y="97" width="352" height="219" as="geometry" />
        </mxCell>
        <mxCell id="AHDUkJMj8YiW-9V-rh8S-18" value="不完全競争重視派" style="rounded=0;whiteSpace=wrap;html=1;" parent="AHDUkJMj8YiW-9V-rh8S-15" vertex="1">
          <mxGeometry x="178" y="129" width="120" height="60" as="geometry" />
        </mxCell>
        <mxCell id="AHDUkJMj8YiW-9V-rh8S-19" value="現主流派" style="swimlane;horizontal=0;whiteSpace=wrap;html=1;" parent="AHDUkJMj8YiW-9V-rh8S-15" vertex="1">
          <mxGeometry x="8" y="43" width="321" height="78" as="geometry" />
        </mxCell>
        <mxCell id="AHDUkJMj8YiW-9V-rh8S-16" value="合理的期待重視派" style="rounded=0;whiteSpace=wrap;html=1;" parent="AHDUkJMj8YiW-9V-rh8S-19" vertex="1">
          <mxGeometry x="187" y="9" width="120" height="60" as="geometry" />
        </mxCell>
        <mxCell id="AHDUkJMj8YiW-9V-rh8S-12" value="価格硬直性重視派" style="rounded=0;whiteSpace=wrap;html=1;" parent="AHDUkJMj8YiW-9V-rh8S-19" vertex="1">
          <mxGeometry x="40" y="9" width="120" height="60" as="geometry" />
        </mxCell>
        <mxCell id="VeQA7fgHVSpjSWg_4I_0-1" value="情報の非対称性重視派" style="rounded=0;whiteSpace=wrap;html=1;" parent="AHDUkJMj8YiW-9V-rh8S-15" vertex="1">
          <mxGeometry x="29" y="152" width="127" height="60" as="geometry" />
        </mxCell>
        <mxCell id="AHDUkJMj8YiW-9V-rh8S-43" value="スラッファ派" style="rounded=0;whiteSpace=wrap;html=1;" parent="1" vertex="1">
          <mxGeometry x="594" y="101" width="120" height="60" as="geometry" />
        </mxCell>
        <mxCell id="AHDUkJMj8YiW-9V-rh8S-56" value="モズラー" style="ellipse;whiteSpace=wrap;html=1;" parent="1" vertex="1">
          <mxGeometry x="605" y="232" width="120" height="80" as="geometry" />
        </mxCell>
        <mxCell id="AHDUkJMj8YiW-9V-rh8S-47" value="現代貨幣理論" style="rounded=0;whiteSpace=wrap;html=1;" parent="1" vertex="1">
          <mxGeometry x="421" y="199" width="120" height="60" as="geometry" />
        </mxCell>
        <mxCell id="2Oc6-Kovre68F-RvVyWn-6" value="レギュラシオン学派" style="rounded=0;whiteSpace=wrap;html=1;" vertex="1" parent="1">
          <mxGeometry x="358" y="-171" width="120" height="60" as="geometry" />
        </mxCell>
      </root>
    </mxGraphModel>
  </diagram>
</mxfile>
